<svg width="1131" height="174" viewBox="0 0 1131 174" fill="none" xmlns="http://www.w3.org/2000/svg">
<path d="M57.72 173.3C46.9867 173.3 36.4067 172.15 25.98 169.85C15.5533 167.55 7.12 164.56 0.68 160.88L14.94 126.61C20.92 130.137 27.82 132.897 35.64 134.89C43.6133 136.883 51.3567 137.88 58.87 137.88C65.1567 137.88 69.3733 137.343 71.52 136.27C73.82 135.197 74.97 133.74 74.97 131.9C74.97 130.06 73.6667 128.757 71.06 127.99C68.4533 127.07 65.0033 126.38 60.71 125.92C56.4167 125.46 51.6633 124.923 46.45 124.31C41.39 123.543 36.2533 122.47 31.04 121.09C25.8267 119.71 21.0733 117.64 16.78 114.88C12.4867 112.12 9.03667 108.44 6.43 103.84C3.82333 99.0867 2.52 93.1067 2.52 85.9C2.52 77.9267 4.89667 70.72 9.65 64.28C14.5567 57.84 21.7633 52.7033 31.27 48.87C40.93 44.8833 52.8133 42.89 66.92 42.89C76.12 42.89 85.32 43.7333 94.52 45.42C103.72 47.1067 111.617 49.7133 118.21 53.24L103.95 87.51C97.51 83.9833 91.1467 81.6067 84.86 80.38C78.7267 79 72.9767 78.31 67.61 78.31C61.0167 78.31 56.4933 78.9233 54.04 80.15C51.74 81.3767 50.59 82.7567 50.59 84.29C50.59 86.13 51.8933 87.51 54.5 88.43C57.1067 89.35 60.5567 90.04 64.85 90.5C69.1433 90.96 73.82 91.5733 78.88 92.34C84.0933 92.9533 89.23 94.0267 94.29 95.56C99.5033 96.94 104.257 99.01 108.55 101.77C112.843 104.53 116.293 108.287 118.9 113.04C121.507 117.64 122.81 123.543 122.81 130.75C122.81 138.263 120.433 145.317 115.68 151.91C110.927 158.35 103.72 163.563 94.06 167.55C84.4 171.383 72.2867 173.3 57.72 173.3ZM225.949 42.89C235.609 42.89 244.349 44.8833 252.169 48.87C259.989 52.7033 266.122 58.76 270.569 67.04C275.169 75.32 277.469 86.0533 277.469 99.24V171H225.489V108.21C225.489 100.39 224.109 94.87 221.349 91.65C218.589 88.2767 214.832 86.59 210.079 86.59C206.552 86.59 203.256 87.4333 200.189 89.12C197.276 90.6533 194.899 93.26 193.059 96.94C191.372 100.62 190.529 105.603 190.529 111.89V171H138.549V0.33999H190.529V81.99L178.109 71.41C183.015 61.9033 189.609 54.7733 197.889 50.02C206.322 45.2667 215.675 42.89 225.949 42.89ZM368.759 173.3C354.499 173.3 341.849 170.54 330.809 165.02C319.922 159.347 311.336 151.603 305.049 141.79C298.762 131.977 295.619 120.707 295.619 107.98C295.619 95.2533 298.762 83.9833 305.049 74.17C311.336 64.3567 319.922 56.69 330.809 51.17C341.849 45.65 354.499 42.89 368.759 42.89C383.019 42.89 395.669 45.65 406.709 51.17C417.749 56.69 426.336 64.3567 432.469 74.17C438.756 83.9833 441.899 95.2533 441.899 107.98C441.899 120.707 438.756 131.977 432.469 141.79C426.336 151.603 417.749 159.347 406.709 165.02C395.669 170.54 383.019 173.3 368.759 173.3ZM368.759 132.82C372.592 132.82 376.042 131.9 379.109 130.06C382.176 128.22 384.629 125.46 386.469 121.78C388.309 117.947 389.229 113.347 389.229 107.98C389.229 102.46 388.309 97.9367 386.469 94.41C384.629 90.73 382.176 87.97 379.109 86.13C376.042 84.29 372.592 83.37 368.759 83.37C364.926 83.37 361.476 84.29 358.409 86.13C355.342 87.97 352.889 90.73 351.049 94.41C349.209 97.9367 348.289 102.46 348.289 107.98C348.289 113.347 349.209 117.947 351.049 121.78C352.889 125.46 355.342 128.22 358.409 130.06C361.476 131.9 364.926 132.82 368.759 132.82ZM510.608 173.3C500.641 173.3 491.595 171.307 483.468 167.32C475.495 163.18 469.208 156.817 464.608 148.23C460.008 139.49 457.708 128.297 457.708 114.65V45.19H509.688V105.68C509.688 114.573 511.145 120.783 514.058 124.31C516.971 127.837 520.958 129.6 526.018 129.6C529.085 129.6 531.921 128.833 534.528 127.3C537.288 125.613 539.511 122.93 541.198 119.25C542.885 115.417 543.728 110.433 543.728 104.3V45.19H595.708V171H546.258V134.66L556.148 144.55C551.701 154.363 545.338 161.647 537.058 166.4C528.931 171 520.115 173.3 510.608 173.3ZM679.484 173.3C662.157 173.3 648.664 169.16 639.004 160.88C629.344 152.447 624.514 139.567 624.514 122.24V16.9H676.494V121.78C676.494 125.613 677.49 128.603 679.484 130.75C681.63 132.897 684.237 133.97 687.304 133.97C691.75 133.97 695.66 132.82 699.034 130.52L711.454 166.63C707.467 168.93 702.637 170.617 696.964 171.69C691.444 172.763 685.617 173.3 679.484 173.3ZM607.264 90.04V52.09H702.254V90.04H607.264ZM787.656 173.3C773.396 173.3 760.746 170.54 749.706 165.02C738.819 159.347 730.232 151.603 723.946 141.79C717.659 131.977 714.516 120.707 714.516 107.98C714.516 95.2533 717.659 83.9833 723.946 74.17C730.232 64.3567 738.819 56.69 749.706 51.17C760.746 45.65 773.396 42.89 787.656 42.89C801.916 42.89 814.566 45.65 825.606 51.17C836.646 56.69 845.232 64.3567 851.366 74.17C857.652 83.9833 860.796 95.2533 860.796 107.98C860.796 120.707 857.652 131.977 851.366 141.79C845.232 151.603 836.646 159.347 825.606 165.02C814.566 170.54 801.916 173.3 787.656 173.3ZM787.656 132.82C791.489 132.82 794.939 131.9 798.006 130.06C801.072 128.22 803.526 125.46 805.366 121.78C807.206 117.947 808.126 113.347 808.126 107.98C808.126 102.46 807.206 97.9367 805.366 94.41C803.526 90.73 801.072 87.97 798.006 86.13C794.939 84.29 791.489 83.37 787.656 83.37C783.822 83.37 780.372 84.29 777.306 86.13C774.239 87.97 771.786 90.73 769.946 94.41C768.106 97.9367 767.186 102.46 767.186 107.98C767.186 113.347 768.106 117.947 769.946 121.78C771.786 125.46 774.239 128.22 777.306 130.06C780.372 131.9 783.822 132.82 787.656 132.82ZM929.504 173.3C919.538 173.3 910.491 171.307 902.364 167.32C894.391 163.18 888.104 156.817 883.504 148.23C878.904 139.49 876.604 128.297 876.604 114.65V45.19H928.584V105.68C928.584 114.573 930.041 120.783 932.954 124.31C935.868 127.837 939.854 129.6 944.914 129.6C947.981 129.6 950.818 128.833 953.424 127.3C956.184 125.613 958.408 122.93 960.094 119.25C961.781 115.417 962.624 110.433 962.624 104.3V45.19H1014.6V171H965.154V134.66L975.044 144.55C970.598 154.363 964.234 161.647 955.954 166.4C947.828 171 939.011 173.3 929.504 173.3ZM1098.38 173.3C1081.05 173.3 1067.56 169.16 1057.9 160.88C1048.24 152.447 1043.41 139.567 1043.41 122.24V16.9H1095.39V121.78C1095.39 125.613 1096.39 128.603 1098.38 130.75C1100.53 132.897 1103.13 133.97 1106.2 133.97C1110.65 133.97 1114.56 132.82 1117.93 130.52L1130.35 166.63C1126.36 168.93 1121.53 170.617 1115.86 171.69C1110.34 172.763 1104.51 173.3 1098.38 173.3ZM1026.16 90.04V52.09H1121.15V90.04H1026.16Z" fill="#FF5252"/>
</svg>
